# Alias OBJ Model File
# Exported from SketchUp, (c) 2000-2012 Trimble Navigation Limited
# File units = inches

mtllib fern.mtl

g Mesh1 Component_1_1 Model

usemtl FrontColor
v 7.30526 5 10.2125
vt -10 12.5564
vn -0.813334 2.68495e-016 0.581796
v -1.18993e-016 8.88178e-016 0
vt -5 -7.71161e-016
v 7.30526 -5 10.2125
vt -2.41158e-015 12.5564
f 1/1/1 2/2/1 3/3/1

v 25.9326 3.55271e-015 7.28572
vt 5 -24.4874
vn 0.155221 -4.91177e-017 0.98788
vt 10 -5.63152
vt 2.31166e-015 -5.63152
f 4/4/2 1/5/2 3/6/2

g Mesh2 Component_1_2 Model

v -7.98276 3.82654 10.2125
vn 0.406667 -0.704368 0.581796
v -1.77636e-015 -1.33227e-015 0
v 0.677498 8.82654 10.2125
f 5/1/3 6/2/3 7/3/3

v -12.9663 22.4583 7.28572
vn -0.0776103 0.134425 0.98788
f 8/4/4 5/5/4 7/6/4

g Mesh3 Component_1_3 Model

v 0.677498 -8.82654 10.2125
vn 0.406667 0.704368 0.581796
v -4.44089e-015 -1.77636e-015 0
v -7.98276 -3.82654 10.2125
f 9/1/5 10/2/5 11/3/5

v -12.9663 -22.4583 7.28572
vn -0.0776103 -0.134425 0.98788
f 12/4/6 9/5/6 11/6/6

