# Alias OBJ Model File
# Exported from SketchUp, (c) 2000-2012 Trimble Navigation Limited
# File units = inches

mtllib windmillframe.mtl

g Mesh1 Component_3_1 Model

usemtl FrontColor
v -31.104 53.8738 19.206
vt 69.5774 16.0244
vn 0.498036 0.862624 0.0885468
v 67.0474 4.26326e-014 0
vt -74.99 -13.6694
v -33.5237 58.0648 0
vt 74.99 -13.6694
f 1/1/1 2/2/1 3/3/1

v 62.208 4.26326e-014 19.206
vt -69.5774 16.0244
f 2/2/1 1/1/1 4/4/1

vt 144.567 29.6938
vn 0.498036 -0.862624 0.0885468
v -33.5237 -58.0648 0
vt 1.47684e-013 -8.97337e-015
vt 149.98 0
f 4/5/2 5/6/2 2/7/2

v -31.104 -53.8738 19.206
vt 5.41266 29.6938
f 5/6/2 4/5/2 6/8/2

vt -5.41266 29.6938
vn -0.996072 -1.26829e-015 0.0885468
vt -149.98 2.00976e-014
vt 2.17134e-028 1.79467e-014
f 6/9/3 3/10/3 5/11/3

vt -144.567 29.6938
f 3/10/3 6/9/3 1/12/3

g Mesh2 Model

v -40.1705 -69.5774 200.607
vt 69.5774 195.265
vn -0.994447 -1.26622e-015 0.105241
v -43.2955 74.99 171.078
vt -74.99 165.571
v -43.2955 -74.99 171.078
vt 74.99 165.571
f 7/13/4 8/14/4 9/15/4

v -40.1705 69.5774 200.607
vt -69.5774 195.265
f 8/14/4 7/13/4 10/16/4

vn 0.497223 0.861216 0.105241
v 86.591 4.26326e-014 171.078
f 10/13/5 11/14/5 8/15/5

v 80.341 4.26326e-014 200.607
f 11/14/5 10/13/5 12/16/5

vn 0.497223 -0.861216 0.105241
f 12/13/6 9/14/6 11/15/6

f 9/14/6 12/13/6 7/16/6

