# Alias OBJ Model File
# Exported from SketchUp, (c) 2000-2012 Trimble Navigation Limited
# File units = inches

mtllib windmillbody.mtl

g Mesh1 Model

usemtl FrontColor
v -38.5768 66.8169 187.466
vt -66.8169 131.326
vn -0.818695 -7.21565e-016 0.574229
v -38.5768 -66.8169 187.466
vt 66.8169 131.326
v -2.84217e-014 1.42109e-014 242.466
vt -1.42109e-014 198.506
f 1/1/1 2/2/1 3/3/1

vt -66.8169 189.554
vn -0.997943 -1.41082e-015 -0.0641022
v -26.535 -45.96 0
vt 45.96 1.70095
vt 66.8169 189.554
f 1/4/2 4/5/2 2/6/2

v -26.535 45.96 0
vt -45.96 1.70095
f 4/5/2 1/4/2 5/7/2

vn 0.498972 0.864244 -0.0641022
v 53.07 0 0
f 1/6/3 6/7/3 5/5/3

v 77.1535 4.26326e-014 187.466
f 6/7/3 1/6/3 7/4/3

vt 3.17193e-014 198.506
vn 0.409347 0.70901 0.574229
f 3/8/4 7/1/4 1/2/4

vt -1.75085e-014 198.506
vn 0.409347 -0.70901 0.574229
f 3/9/5 2/1/5 7/2/5

vn 0.498972 -0.864244 -0.0641022
f 4/7/6 7/6/6 2/4/6

f 7/6/6 4/7/6 6/5/6

