# Alias OBJ Model File
# Exported from SketchUp, (c) 2000-2012 Trimble Navigation Limited
# File units = inches

mtllib windmill.mtl

g Mesh1 Component_2_1 Group1 Model

usemtl FrontColor
v -9.23652e-014 -110.522 36.9417
vt -110.692 110.522
vn -1 3.96351e-016 -2.70837e-016
v 2.25556e-014 1.50178e-013 1.7053e-013
vt -73.75 -1.7053e-013
v -7.23548e-014 -110.522 -36.9417
vt -36.8083 110.522
f 1/1/1 2/2/1 3/3/1

g Mesh2 Component_2_2 Group1 Model

v -1.63425e-013 36.9417 110.522
vn -1 -7.69366e-016 -6.68581e-016
v 0 0 0
v -1.06581e-013 -36.9417 110.522
f 4/1/2 5/2/2 6/3/2

g Mesh3 Component_2_3 Group1 Model

v -1.24436e-013 -36.9417 -110.522
vn -1 -1.39255e-018 8.9488e-016
v 3.55271e-014 2.70006e-013 1.94542e-013
v -1.24539e-013 36.9417 -110.522
f 7/1/3 8/2/3 9/3/3

g Mesh4 Component_2_4 Group1 Model

v -2.09706e-013 110.522 -36.9417
vn -1 -1.16711e-015 4.97136e-016
v -1.23934e-015 -2.08753e-013 1.7053e-013
v -1.72976e-013 110.522 36.9417
f 10/1/4 11/2/4 12/3/4

